Nepomuk-BoldItalic.220411-2224.ufo
<glyph name="exclam" format="2">
  <advance width="297"/>
  <unicode hex="0021"/>
  <outline>
    <contour>
      <point x="10" y="55" type="curve" smooth="yes"/>
      <point x="10" y="21"/>
      <point x="42" y="-7"/>
      <point x="82" y="-7" type="curve" smooth="yes"/>
      <point x="122" y="-7"/>
      <point x="154" y="21"/>
      <point x="154" y="55" type="curve" smooth="yes"/>
      <point x="154" y="89"/>
      <point x="122" y="117"/>
      <point x="82" y="117" type="curve" smooth="yes"/>
      <point x="42" y="117"/>
      <point x="10" y="89"/>
    </contour>
    <contour>
      <point x="271" y="692" type="curve" smooth="yes"/>
      <point x="224" y="692"/>
      <point x="192" y="650"/>
      <point x="182" y="592" type="curve" smooth="yes"/>
      <point x="177" y="567"/>
      <point x="174" y="542"/>
      <point x="170" y="515" type="curve" smooth="yes"/>
      <point x="160" y="440"/>
      <point x="147" y="351"/>
      <point x="108" y="229" type="curve"/>
      <point x="158" y="213" type="line"/>
      <point x="204" y="353"/>
      <point x="244" y="423"/>
      <point x="279" y="485" type="curve" smooth="yes"/>
      <point x="292" y="508"/>
      <point x="305" y="529"/>
      <point x="316" y="552" type="curve" smooth="yes"/>
      <point x="329" y="577"/>
      <point x="337" y="605"/>
      <point x="337" y="627" type="curve" smooth="yes"/>
      <point x="337" y="662"/>
      <point x="317" y="692"/>
    </contour>
  </outline>
</glyph>
<glyph name="dollar" format="2">
  <advance width="596"/>
  <unicode hex="0024"/>
  <outline>
    <contour>
      <point x="163" y="3" type="line"/>
      <point x="171" y="3" type="line"/>
      <point x="170" y="-7" type="line"/>
      <point x="100" y="15"/>
      <point x="46" y="73"/>
      <point x="46" y="148" type="curve" smooth="yes"/>
      <point x="46" y="199"/>
      <point x="79" y="260"/>
      <point x="137" y="260" type="curve" smooth="yes"/>
      <point x="174" y="260"/>
      <point x="201" y="241"/>
      <point x="201" y="208" type="curve" smooth="yes"/>
      <point x="201" y="178"/>
      <point x="178" y="155"/>
      <point x="136" y="155" type="curve" smooth="yes"/>
      <point x="119" y="155"/>
      <point x="114" y="132"/>
      <point x="114" y="118" type="curve" smooth="yes"/>
      <point x="114" y="84"/>
      <point x="136" y="55"/>
      <point x="174" y="39" type="curve"/>
      <point x="259" y="361" type="line"/>
      <point x="265" y="361" type="line"/>
      <point x="263" y="352" type="line"/>
      <point x="196" y="387"/>
      <point x="158" y="417"/>
      <point x="158" y="503" type="curve" smooth="yes"/>
      <point x="158" y="617"/>
      <point x="259" y="689"/>
      <point x="361" y="710" type="curve"/>
      <point x="362" y="701" type="line"/>
      <point x="351" y="701" type="line"/>
      <point x="373" y="778" type="line"/>
      <point x="426" y="778" type="line"/>
      <point x="408" y="716" type="line"/>
      <point x="420" y="716"/>
      <point x="431" y="716"/>
      <point x="443" y="715" type="curve"/>
      <point x="461" y="778" type="line"/>
      <point x="514" y="778" type="line"/>
      <point x="492" y="698" type="line"/>
      <point x="485" y="698" type="line"/>
      <point x="487" y="708" type="line"/>
      <point x="566" y="682"/>
      <point x="615" y="621"/>
      <point x="615" y="562" type="curve" smooth="yes"/>
      <point x="615" y="488"/>
      <point x="575" y="445"/>
      <point x="516" y="445" type="curve" smooth="yes"/>
      <point x="490" y="445"/>
      <point x="458" y="459"/>
      <point x="458" y="492" type="curve" smooth="yes"/>
      <point x="458" y="521"/>
      <point x="481" y="543"/>
      <point x="512" y="549" type="curve" smooth="yes"/>
      <point x="537" y="554"/>
      <point x="551" y="559"/>
      <point x="551" y="586" type="curve" smooth="yes"/>
      <point x="551" y="614"/>
      <point x="525" y="645"/>
      <point x="481" y="661" type="curve"/>
      <point x="404" y="374" type="line"/>
      <point x="398" y="374" type="line"/>
      <point x="401" y="382" type="line"/>
      <point x="408" y="377"/>
      <point x="416" y="374"/>
      <point x="424" y="369" type="curve"/>
      <point x="427" y="368"/>
      <point x="431" y="365"/>
      <point x="435" y="363" type="curve" smooth="yes"/>
      <point x="493" y="329"/>
      <point x="530" y="301"/>
      <point x="530" y="205" type="curve" smooth="yes"/>
      <point x="530" y="81"/>
      <point x="403" y="4"/>
      <point x="294" y="-12" type="curve"/>
      <point x="293" y="-2" type="line"/>
      <point x="304" y="-2" type="line"/>
      <point x="281" y="-81" type="line"/>
      <point x="229" y="-81" type="line"/>
      <point x="246" y="-16" type="line"/>
      <point x="232" y="-16" type="line" smooth="yes"/>
      <point x="229" y="-16"/>
      <point x="225" y="-16"/>
      <point x="221" y="-16" type="curve"/>
      <point x="217" y="-15"/>
      <point x="210" y="-15"/>
      <point x="206" y="-15" type="curve"/>
      <point x="203" y="-13" type="line"/>
      <point x="212" y="-10" type="line"/>
      <point x="192" y="-81" type="line"/>
      <point x="139" y="-81" type="line"/>
    </contour>
    <contour>
      <point x="435" y="682" type="line"/>
      <point x="443" y="682" type="line"/>
      <point x="443" y="672" type="line"/>
      <point x="432" y="673" type="line"/>
      <point x="427" y="673"/>
      <point x="422" y="673"/>
      <point x="418" y="674" type="curve"/>
      <point x="415" y="674"/>
      <point x="413" y="674"/>
      <point x="410" y="674" type="curve" smooth="yes"/>
      <point x="401" y="674"/>
      <point x="394" y="674"/>
      <point x="389" y="673" type="curve"/>
      <point x="388" y="683" type="line"/>
      <point x="399" y="683" type="line"/>
      <point x="327" y="418" type="line"/>
      <point x="321" y="418" type="line"/>
      <point x="324" y="427" type="line"/>
      <point x="361" y="406" type="line"/>
    </contour>
    <contour>
      <point x="341" y="661" type="line"/>
      <point x="283" y="643"/>
      <point x="234" y="604"/>
      <point x="234" y="539" type="curve" smooth="yes"/>
      <point x="234" y="499"/>
      <point x="249" y="472"/>
      <point x="270" y="458" type="curve"/>
      <point x="284" y="450" type="line"/>
    </contour>
    <contour>
      <point x="241" y="26" type="curve" smooth="yes"/>
      <point x="251" y="26"/>
      <point x="259" y="26"/>
      <point x="264" y="27" type="curve"/>
      <point x="265" y="17" type="line"/>
      <point x="254" y="17" type="line"/>
      <point x="336" y="316" type="line"/>
      <point x="342" y="316" type="line"/>
      <point x="339" y="307" type="line"/>
      <point x="304" y="328" type="line"/>
      <point x="220" y="18" type="line"/>
      <point x="211" y="18" type="line"/>
      <point x="212" y="28" type="line"/>
      <point x="217" y="27" type="line"/>
      <point x="223" y="27"/>
      <point x="228" y="27"/>
      <point x="232" y="26" type="curve"/>
      <point x="236" y="26"/>
      <point x="238" y="26"/>
    </contour>
    <contour>
      <point x="311" y="35" type="line"/>
      <point x="393" y="55"/>
      <point x="439" y="107"/>
      <point x="439" y="180" type="curve" smooth="yes"/>
      <point x="439" y="241"/>
      <point x="420" y="262"/>
      <point x="389" y="280" type="curve" smooth="yes"/>
      <point x="380" y="285" type="line"/>
    </contour>
  </outline>
</glyph>
<glyph name="slash" format="2">
  <advance width="328"/>
  <unicode hex="002F"/>
  <outline>
    <contour>
      <point x="296" y="754" type="line"/>
      <point x="-51" y="-123" type="line"/>
      <point x="16" y="-123" type="line"/>
      <point x="363" y="754" type="line"/>
    </contour>
  </outline>
</glyph>
<glyph name="four" format="2">
  <advance width="577"/>
  <unicode hex="0034"/>
  <outline>
    <contour>
      <point x="367" y="85" type="curve" smooth="yes"/>
      <point x="377" y="121"/>
      <point x="387" y="157"/>
      <point x="397" y="193" type="curve"/>
      <point x="387" y="193" type="line"/>
      <point x="535" y="193" type="line"/>
      <point x="547" y="230" type="line"/>
      <point x="409" y="230" type="line"/>
      <point x="473" y="455" type="line"/>
      <point x="473" y="457"/>
      <point x="474" y="459"/>
      <point x="474" y="459" type="curve"/>
      <point x="473" y="462"/>
      <point x="467" y="463"/>
      <point x="460" y="464" type="curve"/>
      <point x="454" y="463"/>
      <point x="448" y="462"/>
      <point x="445" y="460" type="curve" smooth="yes"/>
      <point x="320" y="350" type="line"/>
      <point x="285" y="230" type="line"/>
      <point x="295" y="230" type="line"/>
      <point x="104" y="230" type="line"/>
      <point x="150" y="287"/>
      <point x="196" y="334"/>
      <point x="242" y="382" type="curve" smooth="yes"/>
      <point x="323" y="466"/>
      <point x="409" y="556"/>
      <point x="494" y="680" type="curve"/>
      <point x="328" y="680" type="line"/>
      <point x="258" y="525"/>
      <point x="157" y="375"/>
      <point x="43" y="233" type="curve"/>
      <point x="30" y="193" type="line"/>
      <point x="274" y="193" type="line"/>
      <point x="243" y="85" type="line" smooth="yes"/>
      <point x="233" y="50"/>
      <point x="217" y="35"/>
      <point x="189" y="35" type="curve" smooth="yes"/>
      <point x="124" y="35" type="line"/>
      <point x="114" y="0" type="line"/>
      <point x="457" y="0" type="line"/>
      <point x="467" y="35" type="line"/>
      <point x="392" y="35" type="line" smooth="yes"/>
      <point x="373" y="35"/>
      <point x="364" y="44"/>
      <point x="364" y="63" type="curve" smooth="yes"/>
      <point x="364" y="70"/>
      <point x="365" y="77"/>
    </contour>
  </outline>
</glyph>
<glyph name="five" format="2">
  <advance width="568"/>
  <unicode hex="0035"/>
  <outline>
    <contour>
      <point x="132" y="58" type="curve" smooth="yes"/>
      <point x="132" y="68"/>
      <point x="138" y="78"/>
      <point x="150" y="86" type="curve" smooth="yes"/>
      <point x="176" y="102"/>
      <point x="189" y="127"/>
      <point x="189" y="149" type="curve" smooth="yes"/>
      <point x="189" y="190"/>
      <point x="155" y="220"/>
      <point x="108" y="220" type="curve" smooth="yes"/>
      <point x="62" y="220"/>
      <point x="20" y="187"/>
      <point x="20" y="137" type="curve" smooth="yes"/>
      <point x="20" y="56"/>
      <point x="97" y="-12"/>
      <point x="217" y="-12" type="curve" smooth="yes"/>
      <point x="377" y="-12"/>
      <point x="501" y="97"/>
      <point x="501" y="237" type="curve" smooth="yes"/>
      <point x="501" y="345"/>
      <point x="428" y="410"/>
      <point x="321" y="410" type="curve" smooth="yes"/>
      <point x="294" y="410"/>
      <point x="241" y="405"/>
      <point x="204" y="391" type="curve"/>
      <point x="266" y="579" type="line"/>
      <point x="297" y="575"/>
      <point x="328" y="573"/>
      <point x="357" y="573" type="curve" smooth="yes"/>
      <point x="460" y="573"/>
      <point x="546" y="598"/>
      <point x="567" y="662" type="curve"/>
      <point x="568" y="667"/>
      <point x="568" y="668"/>
      <point x="568" y="669" type="curve"/>
      <point x="568" y="674"/>
      <point x="564" y="676"/>
      <point x="549" y="676" type="curve" smooth="yes"/>
      <point x="545" y="676" type="line"/>
      <point x="518" y="673"/>
      <point x="483" y="672"/>
      <point x="448" y="672" type="curve" smooth="yes"/>
      <point x="376" y="672"/>
      <point x="293" y="678"/>
      <point x="243" y="687" type="curve"/>
      <point x="139" y="362" type="line"/>
      <point x="165" y="337" type="line"/>
      <point x="203" y="356"/>
      <point x="253" y="373"/>
      <point x="291" y="373" type="curve" smooth="yes"/>
      <point x="356" y="373"/>
      <point x="377" y="319"/>
      <point x="377" y="248" type="curve" smooth="yes"/>
      <point x="377" y="134"/>
      <point x="305" y="24"/>
      <point x="208" y="24" type="curve" smooth="yes"/>
      <point x="180" y="24"/>
      <point x="132" y="32"/>
    </contour>
  </outline>
</glyph>
<glyph name="six" format="2">
  <advance width="574"/>
  <unicode hex="0036"/>
  <outline>
    <contour>
      <point x="429" y="573" type="curve" smooth="yes"/>
      <point x="429" y="539"/>
      <point x="458" y="508"/>
      <point x="502" y="508" type="curve" smooth="yes"/>
      <point x="550" y="508"/>
      <point x="581" y="543"/>
      <point x="581" y="578" type="curve" smooth="yes"/>
      <point x="581" y="653"/>
      <point x="512" y="692"/>
      <point x="421" y="692" type="curve" smooth="yes"/>
      <point x="254" y="692"/>
      <point x="56" y="455"/>
      <point x="56" y="221" type="curve" smooth="yes"/>
      <point x="56" y="102"/>
      <point x="110" y="-12"/>
      <point x="243" y="-12" type="curve" smooth="yes"/>
      <point x="387" y="-12"/>
      <point x="503" y="106"/>
      <point x="503" y="255" type="curve" smooth="yes"/>
      <point x="503" y="347"/>
      <point x="440" y="413"/>
      <point x="338" y="413" type="curve" smooth="yes"/>
      <point x="291" y="413"/>
      <point x="248" y="400"/>
      <point x="210" y="380" type="curve"/>
      <point x="251" y="506"/>
      <point x="335" y="657"/>
      <point x="421" y="657" type="curve" smooth="yes"/>
      <point x="439" y="657"/>
      <point x="448" y="650"/>
      <point x="448" y="636" type="curve" smooth="yes"/>
      <point x="448" y="628"/>
      <point x="446" y="620"/>
      <point x="442" y="613" type="curve" smooth="yes"/>
      <point x="435" y="601"/>
      <point x="429" y="588"/>
    </contour>
    <contour>
      <point x="382" y="269" type="curve" smooth="yes"/>
      <point x="382" y="144"/>
      <point x="319" y="28"/>
      <point x="226" y="28" type="curve" smooth="yes"/>
      <point x="173" y="28"/>
      <point x="153" y="87"/>
      <point x="153" y="150" type="curve" smooth="yes"/>
      <point x="153" y="175"/>
      <point x="156" y="199"/>
      <point x="162" y="221" type="curve" smooth="yes"/>
      <point x="168" y="243"/>
      <point x="175" y="265"/>
      <point x="181" y="287" type="curve" smooth="yes"/>
      <point x="197" y="342"/>
      <point x="268" y="370"/>
      <point x="308" y="370" type="curve" smooth="yes"/>
      <point x="358" y="370"/>
      <point x="382" y="322"/>
    </contour>
  </outline>
</glyph>
<glyph name="eight" format="2">
  <advance width="615"/>
  <unicode hex="0038"/>
  <outline>
    <contour>
      <point x="20" y="166" type="curve"/>
      <point x="20" y="163" type="line" smooth="yes"/>
      <point x="20" y="64"/>
      <point x="128" y="-12"/>
      <point x="256" y="-12" type="curve" smooth="yes"/>
      <point x="381" y="-12"/>
      <point x="534" y="68"/>
      <point x="534" y="185" type="curve" smooth="yes"/>
      <point x="534" y="254"/>
      <point x="498" y="301"/>
      <point x="433" y="355" type="curve"/>
      <point x="428" y="355" type="line"/>
      <point x="534" y="381"/>
      <point x="625" y="450"/>
      <point x="625" y="541" type="curve" smooth="yes"/>
      <point x="625" y="624"/>
      <point x="536" y="692"/>
      <point x="424" y="692" type="curve" smooth="yes"/>
      <point x="283" y="692"/>
      <point x="182" y="609"/>
      <point x="182" y="508" type="curve" smooth="yes"/>
      <point x="182" y="464"/>
      <point x="203" y="415"/>
      <point x="248" y="365" type="curve"/>
      <point x="254" y="365" type="line"/>
      <point x="136" y="338"/>
      <point x="22" y="265"/>
    </contour>
    <contour>
      <point x="399" y="381" type="line"/>
      <point x="397" y="382"/>
      <point x="398" y="382"/>
      <point x="396" y="383" type="curve"/>
      <point x="395" y="384"/>
      <point x="394" y="385"/>
      <point x="386" y="390" type="curve"/>
      <point x="387" y="390" type="line"/>
      <point x="326" y="435"/>
      <point x="299" y="492"/>
      <point x="299" y="543" type="curve" smooth="yes"/>
      <point x="299" y="606"/>
      <point x="343" y="657"/>
      <point x="418" y="657" type="curve" smooth="yes"/>
      <point x="484" y="657"/>
      <point x="524" y="596"/>
      <point x="524" y="530" type="curve" smooth="yes"/>
      <point x="524" y="465"/>
      <point x="484" y="396"/>
      <point x="392" y="380" type="curve"/>
    </contour>
    <contour>
      <point x="279" y="336" type="line"/>
      <point x="287" y="329"/>
      <point x="295" y="324"/>
      <point x="304" y="317" type="curve" smooth="yes"/>
      <point x="378" y="262"/>
      <point x="407" y="205"/>
      <point x="407" y="156" type="curve" smooth="yes"/>
      <point x="407" y="79"/>
      <point x="332" y="25"/>
      <point x="256" y="25" type="curve" smooth="yes"/>
      <point x="168" y="25"/>
      <point x="126" y="88"/>
      <point x="126" y="155" type="curve" smooth="yes"/>
      <point x="126" y="159" type="line"/>
      <point x="128" y="248"/>
      <point x="203" y="317"/>
      <point x="286" y="338" type="curve"/>
    </contour>
  </outline>
</glyph>
<glyph name="semicolon" format="2">
  <advance width="278"/>
  <unicode hex="003B"/>
  <outline>
    <contour>
      <point x="96" y="390" type="curve" smooth="yes"/>
      <point x="96" y="351"/>
      <point x="132" y="319"/>
      <point x="177" y="319" type="curve" smooth="yes"/>
      <point x="222" y="319"/>
      <point x="258" y="351"/>
      <point x="258" y="390" type="curve" smooth="yes"/>
      <point x="258" y="429"/>
      <point x="222" y="461"/>
      <point x="177" y="461" type="curve" smooth="yes"/>
      <point x="132" y="461"/>
      <point x="96" y="429"/>
    </contour>
    <contour>
      <point x="91" y="135" type="curve" smooth="yes"/>
      <point x="50" y="135"/>
      <point x="16" y="109"/>
      <point x="16" y="70" type="curve" smooth="yes"/>
      <point x="16" y="40"/>
      <point x="41" y="13"/>
      <point x="71" y="4" type="curve"/>
      <point x="70" y="4" type="line"/>
      <point x="78" y="1"/>
      <point x="83" y="-3"/>
      <point x="83" y="-14" type="curve" smooth="yes"/>
      <point x="83" y="-65"/>
      <point x="2" y="-115"/>
      <point x="-59" y="-137" type="curve"/>
      <point x="-46" y="-167" type="line"/>
      <point x="70" y="-124"/>
      <point x="175" y="-54"/>
      <point x="175" y="51" type="curve" smooth="yes"/>
      <point x="175" y="91"/>
      <point x="146" y="135"/>
    </contour>
  </outline>
</glyph>
<glyph name="greater" format="2">
  <advance width="963"/>
  <unicode hex="003E"/>
  <outline>
    <contour>
      <point x="120" y="-160" type="line"/>
      <point x="88" y="-103" type="line"/>
      <point x="778" y="279" type="line"/>
      <point x="88" y="660" type="line"/>
      <point x="120" y="717" type="line"/>
      <point x="877" y="299" type="line"/>
      <point x="877" y="258" type="line"/>
    </contour>
  </outline>
</glyph>
<glyph name="E" format="2">
  <advance width="687"/>
  <unicode hex="0045"/>
  <anchor x="436" y="714" name="t.asciicircum_1"/>
  <outline>
    <contour>
      <point x="155" y="680" type="line"/>
      <point x="145" y="645" type="line"/>
      <point x="205" y="645" type="line" smooth="yes"/>
      <point x="225" y="645"/>
      <point x="234" y="636"/>
      <point x="234" y="616" type="curve" smooth="yes"/>
      <point x="234" y="609"/>
      <point x="233" y="602"/>
      <point x="231" y="595" type="curve" smooth="yes"/>
      <point x="84" y="85" type="line" smooth="yes"/>
      <point x="74" y="50"/>
      <point x="58" y="35"/>
      <point x="30" y="35" type="curve" smooth="yes"/>
      <point x="-10" y="35" type="line"/>
      <point x="-20" y="0" type="line"/>
      <point x="533" y="0" type="line"/>
      <point x="618" y="280" type="line"/>
      <point x="569" y="280" type="line"/>
      <point x="512" y="159"/>
      <point x="439" y="36"/>
      <point x="304" y="36" type="curve" smooth="yes"/>
      <point x="231" y="36" type="line" smooth="yes"/>
      <point x="214" y="36"/>
      <point x="201" y="50"/>
      <point x="201" y="69" type="curve" smooth="yes"/>
      <point x="201" y="73"/>
      <point x="201" y="77"/>
      <point x="202" y="79" type="curve" smooth="yes"/>
      <point x="227" y="165"/>
      <point x="252" y="251"/>
      <point x="277" y="337" type="curve"/>
      <point x="267" y="337" type="line"/>
      <point x="317" y="337" type="line" smooth="yes"/>
      <point x="358" y="337"/>
      <point x="379" y="304"/>
      <point x="379" y="242" type="curve" smooth="yes"/>
      <point x="379" y="222"/>
      <point x="377" y="199"/>
      <point x="372" y="175" type="curve"/>
      <point x="425" y="175" type="line"/>
      <point x="522" y="512" type="line"/>
      <point x="469" y="512" type="line"/>
      <point x="436" y="425"/>
      <point x="393" y="372"/>
      <point x="340" y="372" type="curve" smooth="yes"/>
      <point x="287" y="372" type="line"/>
      <point x="353" y="604" type="line" smooth="yes"/>
      <point x="360" y="628"/>
      <point x="394" y="644"/>
      <point x="419" y="644" type="curve" smooth="yes"/>
      <point x="482" y="644" type="line" smooth="yes"/>
      <point x="568" y="644"/>
      <point x="601" y="585"/>
      <point x="601" y="482" type="curve" smooth="yes"/>
      <point x="601" y="471"/>
      <point x="601" y="458"/>
      <point x="600" y="445" type="curve" name="hr01"/>
      <point x="649" y="445" type="line"/>
      <point x="697" y="680" type="line"/>
    </contour>
  </outline>
</glyph>
<glyph name="F" format="2">
  <advance width="647"/>
  <unicode hex="0046"/>
  <outline>
    <contour>
      <point x="-20" y="0" type="line"/>
      <point x="289" y="0" type="line"/>
      <point x="299" y="35" type="line"/>
      <point x="229" y="35" type="line" smooth="yes"/>
      <point x="210" y="35"/>
      <point x="201" y="44"/>
      <point x="201" y="63" type="curve" smooth="yes"/>
      <point x="201" y="70"/>
      <point x="202" y="77"/>
      <point x="204" y="85" type="curve" smooth="yes"/>
      <point x="225" y="156"/>
      <point x="256" y="266"/>
      <point x="277" y="337" type="curve"/>
      <point x="317" y="337" type="line" smooth="yes"/>
      <point x="358" y="337"/>
      <point x="379" y="304"/>
      <point x="379" y="242" type="curve" smooth="yes"/>
      <point x="379" y="222"/>
      <point x="377" y="199"/>
      <point x="372" y="175" type="curve"/>
      <point x="425" y="175" type="line"/>
      <point x="522" y="512" type="line"/>
      <point x="469" y="512" type="line"/>
      <point x="436" y="425"/>
      <point x="393" y="372"/>
      <point x="340" y="372" type="curve" smooth="yes"/>
      <point x="287" y="372" type="line"/>
      <point x="353" y="604" type="line" smooth="yes"/>
      <point x="360" y="628"/>
      <point x="394" y="644"/>
      <point x="419" y="644" type="curve" smooth="yes"/>
      <point x="482" y="644" type="line" smooth="yes"/>
      <point x="568" y="644"/>
      <point x="601" y="585"/>
      <point x="601" y="482" type="curve" smooth="yes"/>
      <point x="601" y="471"/>
      <point x="601" y="458"/>
      <point x="600" y="445" type="curve"/>
      <point x="649" y="445" type="line"/>
      <point x="697" y="680" type="line"/>
      <point x="155" y="680" type="line"/>
      <point x="145" y="645" type="line"/>
      <point x="205" y="645" type="line" smooth="yes"/>
      <point x="225" y="645"/>
      <point x="234" y="636"/>
      <point x="234" y="616" type="curve" smooth="yes"/>
      <point x="234" y="609"/>
      <point x="233" y="602"/>
      <point x="231" y="595" type="curve" smooth="yes"/>
      <point x="84" y="85" type="line" smooth="yes"/>
      <point x="74" y="50"/>
      <point x="58" y="35"/>
      <point x="30" y="35" type="curve" smooth="yes"/>
      <point x="-10" y="35" type="line"/>
    </contour>
  </outline>
</glyph>
<glyph name="U" format="2">
  <advance width="717"/>
  <unicode hex="0055"/>
  <anchor x="476" y="714" name="t.asciicircum_1"/>
  <outline>
    <contour>
      <point x="683" y="595" type="line" smooth="yes"/>
      <point x="693" y="630"/>
      <point x="709" y="645"/>
      <point x="737" y="645" type="curve" smooth="yes"/>
      <point x="787" y="645" type="line"/>
      <point x="797" y="680" type="line"/>
      <point x="535" y="680" type="line"/>
      <point x="525" y="645" type="line"/>
      <point x="595" y="645" type="line" smooth="yes"/>
      <point x="615" y="645"/>
      <point x="624" y="636"/>
      <point x="624" y="616" type="curve" smooth="yes"/>
      <point x="624" y="609"/>
      <point x="623" y="602"/>
      <point x="621" y="595" type="curve" smooth="yes"/>
      <point x="529" y="274" type="line" smooth="yes"/>
      <point x="495" y="154"/>
      <point x="429" y="31"/>
      <point x="317" y="31" type="curve" smooth="yes"/>
      <point x="256" y="31"/>
      <point x="232" y="66"/>
      <point x="232" y="131" type="curve" smooth="yes"/>
      <point x="232" y="173"/>
      <point x="243" y="226"/>
      <point x="261" y="288" type="curve" smooth="yes"/>
      <point x="349" y="595" type="line" smooth="yes"/>
      <point x="359" y="630"/>
      <point x="375" y="645"/>
      <point x="403" y="645" type="curve" smooth="yes"/>
      <point x="443" y="645" type="line"/>
      <point x="453" y="680" type="line"/>
      <point x="145" y="680" type="line"/>
      <point x="135" y="645" type="line"/>
      <point x="195" y="645" type="line" smooth="yes"/>
      <point x="215" y="645"/>
      <point x="224" y="636"/>
      <point x="224" y="616" type="curve" smooth="yes"/>
      <point x="224" y="609"/>
      <point x="223" y="602"/>
      <point x="221" y="595" type="curve" smooth="yes"/>
      <point x="194" y="503"/>
      <point x="168" y="410"/>
      <point x="141" y="318" type="curve" smooth="yes"/>
      <point x="128" y="272"/>
      <point x="110" y="205"/>
      <point x="110" y="160" type="curve" smooth="yes"/>
      <point x="110" y="39"/>
      <point x="193" y="-12"/>
      <point x="297" y="-12" type="curve" smooth="yes"/>
      <point x="467" y="-12"/>
      <point x="545" y="118"/>
      <point x="585" y="257" type="curve" smooth="yes"/>
    </contour>
  </outline>
</glyph>
<glyph name="V" format="2">
  <advance width="742"/>
  <unicode hex="0056"/>
  <outline>
    <contour>
      <point x="400" y="154" type="line"/>
      <point x="349" y="571" type="line" smooth="yes"/>
      <point x="348" y="578"/>
      <point x="348" y="584"/>
      <point x="348" y="590" type="curve" smooth="yes"/>
      <point x="348" y="633"/>
      <point x="367" y="645"/>
      <point x="404" y="645" type="curve" smooth="yes"/>
      <point x="442" y="645" type="line"/>
      <point x="452" y="680" type="line"/>
      <point x="147" y="680" type="line"/>
      <point x="137" y="645" type="line"/>
      <point x="171" y="645" type="line" smooth="yes"/>
      <point x="198" y="645"/>
      <point x="219" y="638"/>
      <point x="227" y="574" type="curve" smooth="yes"/>
      <point x="299" y="-12" type="line"/>
      <point x="367" y="-12" type="line"/>
      <point x="706" y="564" type="line" smooth="yes"/>
      <point x="752" y="644"/>
      <point x="774" y="645"/>
      <point x="805" y="645" type="curve" smooth="yes"/>
      <point x="840" y="645" type="line"/>
      <point x="850" y="680" type="line"/>
      <point x="585" y="680" type="line"/>
      <point x="575" y="645" type="line"/>
      <point x="612" y="645" type="line" smooth="yes"/>
      <point x="644" y="645"/>
      <point x="662" y="640"/>
      <point x="662" y="618" type="curve" smooth="yes"/>
      <point x="662" y="604"/>
      <point x="655" y="587"/>
      <point x="641" y="563" type="curve" smooth="yes"/>
    </contour>
  </outline>
</glyph>
<glyph name="X" format="2">
  <advance width="687"/>
  <unicode hex="0058"/>
  <outline>
    <contour>
      <point x="238" y="35" type="line"/>
      <point x="185" y="35" type="line" smooth="yes"/>
      <point x="159" y="35"/>
      <point x="148" y="46"/>
      <point x="148" y="63" type="curve" smooth="yes"/>
      <point x="148" y="79"/>
      <point x="156" y="96"/>
      <point x="171" y="111" type="curve" smooth="yes"/>
      <point x="224" y="168"/>
      <point x="282" y="231"/>
      <point x="336" y="288" type="curve"/>
      <point x="409" y="108" type="line" smooth="yes"/>
      <point x="414" y="96"/>
      <point x="416" y="84"/>
      <point x="416" y="74" type="curve" smooth="yes"/>
      <point x="416" y="45"/>
      <point x="398" y="35"/>
      <point x="380" y="35" type="curve" smooth="yes"/>
      <point x="350" y="35" type="line"/>
      <point x="340" y="0" type="line"/>
      <point x="644" y="0" type="line"/>
      <point x="654" y="35" type="line"/>
      <point x="604" y="35" type="line" smooth="yes"/>
      <point x="576" y="35"/>
      <point x="560" y="55"/>
      <point x="548" y="86" type="curve" smooth="yes"/>
      <point x="508" y="183"/>
      <point x="469" y="279"/>
      <point x="430" y="376" type="curve"/>
      <point x="428" y="376" type="line"/>
      <point x="626" y="588" type="line" smooth="yes"/>
      <point x="673" y="638"/>
      <point x="693" y="645"/>
      <point x="721" y="645" type="curve" smooth="yes"/>
      <point x="757" y="645" type="line"/>
      <point x="767" y="680" type="line"/>
      <point x="494" y="680" type="line"/>
      <point x="484" y="645" type="line"/>
      <point x="537" y="645" type="line" smooth="yes"/>
      <point x="554" y="645"/>
      <point x="563" y="635"/>
      <point x="563" y="620" type="curve" smooth="yes"/>
      <point x="563" y="605"/>
      <point x="555" y="588"/>
      <point x="539" y="571" type="curve" smooth="yes"/>
      <point x="496" y="524"/>
      <point x="452" y="476"/>
      <point x="408" y="430" type="curve"/>
      <point x="345" y="586" type="line"/>
      <point x="341" y="594"/>
      <point x="339" y="603"/>
      <point x="339" y="612" type="curve" smooth="yes"/>
      <point x="339" y="631"/>
      <point x="349" y="645"/>
      <point x="377" y="645" type="curve" smooth="yes"/>
      <point x="404" y="645" type="line"/>
      <point x="414" y="680" type="line"/>
      <point x="117" y="680" type="line"/>
      <point x="107" y="645" type="line"/>
      <point x="162" y="645" type="line" smooth="yes"/>
      <point x="186" y="645"/>
      <point x="198" y="631"/>
      <point x="212" y="595" type="curve" smooth="yes"/>
      <point x="246" y="511"/>
      <point x="280" y="426"/>
      <point x="314" y="342" type="curve"/>
      <point x="316" y="342" type="line"/>
      <point x="84" y="93" type="line" smooth="yes"/>
      <point x="41" y="47"/>
      <point x="21" y="35"/>
      <point x="-14" y="35" type="curve" smooth="yes"/>
      <point x="-40" y="35" type="line"/>
      <point x="-50" y="0" type="line"/>
      <point x="228" y="0" type="line"/>
    </contour>
  </outline>
</glyph>
<glyph name="Y" format="2">
  <advance width="582"/>
  <unicode hex="0059"/>
  <anchor x="436" y="714" name="t.asciicircum_1"/>
  <outline>
    <contour>
      <point x="212" y="85" type="line" smooth="yes"/>
      <point x="202" y="50"/>
      <point x="186" y="35"/>
      <point x="158" y="35" type="curve" smooth="yes"/>
      <point x="113" y="35" type="line"/>
      <point x="103" y="0" type="line"/>
      <point x="404" y="0" type="line"/>
      <point x="414" y="35" type="line"/>
      <point x="359" y="35" type="line" smooth="yes"/>
      <point x="339" y="35"/>
      <point x="330" y="44"/>
      <point x="330" y="64" type="curve" smooth="yes"/>
      <point x="330" y="71"/>
      <point x="331" y="78"/>
      <point x="333" y="85" type="curve" smooth="yes"/>
      <point x="354" y="158"/>
      <point x="375" y="231"/>
      <point x="396" y="304" type="curve"/>
      <point x="394" y="304" type="line"/>
      <point x="609" y="590" type="line" smooth="yes"/>
      <point x="636" y="627"/>
      <point x="666" y="645"/>
      <point x="692" y="645" type="curve" smooth="yes"/>
      <point x="742" y="645" type="line"/>
      <point x="752" y="680" type="line"/>
      <point x="497" y="680" type="line"/>
      <point x="487" y="645" type="line"/>
      <point x="540" y="645" type="line" smooth="yes"/>
      <point x="550" y="645"/>
      <point x="558" y="640"/>
      <point x="558" y="627" type="curve" smooth="yes"/>
      <point x="558" y="617"/>
      <point x="553" y="604"/>
      <point x="543" y="590" type="curve" smooth="yes"/>
      <point x="487" y="515"/>
      <point x="431" y="441"/>
      <point x="375" y="366" type="curve"/>
      <point x="295" y="600" type="line" smooth="yes"/>
      <point x="294" y="603"/>
      <point x="294" y="607"/>
      <point x="294" y="612" type="curve" smooth="yes"/>
      <point x="294" y="628"/>
      <point x="300" y="645"/>
      <point x="322" y="645" type="curve" smooth="yes"/>
      <point x="368" y="645" type="line"/>
      <point x="378" y="680" type="line"/>
      <point x="85" y="680" type="line"/>
      <point x="75" y="645" type="line"/>
      <point x="126" y="645" type="line" smooth="yes"/>
      <point x="154" y="645"/>
      <point x="162" y="636"/>
      <point x="173" y="600" type="curve"/>
      <point x="207" y="501"/>
      <point x="241" y="402"/>
      <point x="275" y="303" type="curve"/>
    </contour>
  </outline>
</glyph>
<glyph name="bracketleft" format="2">
  <advance width="292"/>
  <unicode hex="005B"/>
  <outline>
    <contour>
      <point x="392" y="740" type="line"/>
      <point x="164" y="740" type="line"/>
      <point x="-63" y="-179" type="line"/>
      <point x="185" y="-179" type="line"/>
      <point x="195" y="-137" type="line"/>
      <point x="41" y="-137" type="line"/>
      <point x="248" y="698" type="line"/>
      <point x="238" y="698" type="line"/>
      <point x="382" y="698" type="line"/>
    </contour>
  </outline>
</glyph>
<glyph name="backslash" format="2">
  <advance width="316"/>
  <unicode hex="005C"/>
  <outline>
    <contour>
      <point x="65" y="754" type="line"/>
      <point x="159" y="-123" type="line"/>
      <point x="226" y="-123" type="line"/>
      <point x="132" y="754" type="line"/>
    </contour>
  </outline>
</glyph>
<glyph name="bracketright" format="2">
  <advance width="292"/>
  <unicode hex="005D"/>
  <outline>
    <contour>
      <point x="44" y="-137" type="line"/>
      <point x="54" y="-137" type="line"/>
      <point x="-90" y="-137" type="line"/>
      <point x="-100" y="-179" type="line"/>
      <point x="128" y="-179" type="line"/>
      <point x="355" y="740" type="line"/>
      <point x="107" y="740" type="line"/>
      <point x="97" y="698" type="line"/>
      <point x="251" y="698" type="line"/>
    </contour>
  </outline>
</glyph>
<glyph name="asciicircum" format="2">
  <advance width="268"/>
  <unicode hex="005E"/>
  <outline>
    <contour>
      <point x="114" y="702" type="line"/>
      <point x="86" y="660"/>
      <point x="24" y="585"/>
      <point x="-9" y="556" type="curve"/>
      <point x="1" y="529" type="line"/>
      <point x="41" y="553"/>
      <point x="100" y="594"/>
      <point x="145" y="628" type="curve"/>
      <point x="177" y="590"/>
      <point x="213" y="555"/>
      <point x="242" y="526" type="curve"/>
      <point x="276" y="538" type="line"/>
      <point x="251" y="576"/>
      <point x="211" y="656"/>
      <point x="194" y="702" type="curve"/>
    </contour>
  </outline>
</glyph>
<glyph name="c" format="2">
  <advance width="464"/>
  <unicode hex="0063"/>
  <anchor x="295" y="488" name="t.asciicircum_1"/>
  <outline>
    <contour>
      <point x="302" y="433" type="curve" smooth="yes"/>
      <point x="322" y="433"/>
      <point x="334" y="419"/>
      <point x="334" y="404" type="curve" smooth="yes"/>
      <point x="334" y="397"/>
      <point x="332" y="391"/>
      <point x="329" y="388" type="curve" smooth="yes"/>
      <point x="302" y="365"/>
      <point x="290" y="344"/>
      <point x="290" y="320" type="curve" smooth="yes"/>
      <point x="290" y="290"/>
      <point x="316" y="268"/>
      <point x="349" y="268" type="curve" smooth="yes"/>
      <point x="392" y="268"/>
      <point x="424" y="308"/>
      <point x="424" y="349" type="curve" smooth="yes"/>
      <point x="424" y="397"/>
      <point x="379" y="462"/>
      <point x="298" y="462" type="curve" smooth="yes"/>
      <point x="175" y="462"/>
      <point x="39" y="321"/>
      <point x="39" y="162" type="curve" smooth="yes"/>
      <point x="39" y="69"/>
      <point x="91" y="-12"/>
      <point x="194" y="-12" type="curve" smooth="yes"/>
      <point x="274" y="-12"/>
      <point x="347" y="38"/>
      <point x="387" y="127" type="curve"/>
      <point x="341" y="141" type="line"/>
      <point x="291" y="57"/>
      <point x="247" y="26"/>
      <point x="205" y="26" type="curve" smooth="yes"/>
      <point x="168" y="26"/>
      <point x="152" y="55"/>
      <point x="152" y="104" type="curve" smooth="yes"/>
      <point x="152" y="140"/>
      <point x="162" y="186"/>
      <point x="178" y="237" type="curve" smooth="yes"/>
      <point x="205" y="322"/>
      <point x="241" y="433"/>
    </contour>
  </outline>
</glyph>
<glyph name="o" format="2">
  <advance width="504"/>
  <unicode hex="006F"/>
  <anchor x="295" y="488" name="t.asciicircum_1"/>
  <outline>
    <contour>
      <point x="352" y="367" type="curve" smooth="yes"/>
      <point x="352" y="320"/>
      <point x="332" y="262"/>
      <point x="315" y="212" type="curve" smooth="yes"/>
      <point x="288" y="127"/>
      <point x="253" y="18"/>
      <point x="192" y="18" type="curve" smooth="yes"/>
      <point x="157" y="18"/>
      <point x="143" y="47"/>
      <point x="143" y="84" type="curve" smooth="yes"/>
      <point x="143" y="125"/>
      <point x="159" y="175"/>
      <point x="174" y="221" type="curve" smooth="yes"/>
      <point x="176" y="226"/>
      <point x="177" y="232"/>
      <point x="179" y="237" type="curve" smooth="yes"/>
      <point x="207" y="322"/>
      <point x="242" y="435"/>
      <point x="303" y="435" type="curve" smooth="yes"/>
      <point x="338" y="435"/>
      <point x="352" y="405"/>
    </contour>
    <contour>
      <point x="299" y="462" type="curve" smooth="yes"/>
      <point x="176" y="462"/>
      <point x="40" y="321"/>
      <point x="40" y="162" type="curve" smooth="yes"/>
      <point x="40" y="69"/>
      <point x="92" y="-12"/>
      <point x="195" y="-12" type="curve" smooth="yes"/>
      <point x="339" y="-12"/>
      <point x="454" y="152"/>
      <point x="454" y="288" type="curve" smooth="yes"/>
      <point x="454" y="381"/>
      <point x="402" y="462"/>
    </contour>
  </outline>
</glyph>
<glyph name="v" format="2">
  <advance width="535"/>
  <unicode hex="0076"/>
  <outline>
    <contour>
      <point x="495" y="342" type="curve" smooth="yes"/>
      <point x="495" y="412"/>
      <point x="461" y="474"/>
      <point x="402" y="474" type="curve" smooth="yes"/>
      <point x="375" y="474"/>
      <point x="350" y="449"/>
      <point x="350" y="423" type="curve" smooth="yes"/>
      <point x="350" y="390"/>
      <point x="375" y="359"/>
      <point x="397" y="332" type="curve" smooth="yes"/>
      <point x="415" y="310"/>
      <point x="424" y="295"/>
      <point x="424" y="270" type="curve" smooth="yes"/>
      <point x="424" y="194"/>
      <point x="359" y="34"/>
      <point x="255" y="34" type="curve" smooth="yes"/>
      <point x="228" y="34"/>
      <point x="216" y="64"/>
      <point x="216" y="107" type="curve" smooth="yes"/>
      <point x="216" y="139"/>
      <point x="224" y="176"/>
      <point x="238" y="212" type="curve" smooth="yes"/>
      <point x="250" y="245"/>
      <point x="262" y="279"/>
      <point x="275" y="312" type="curve" smooth="yes"/>
      <point x="284" y="336"/>
      <point x="289" y="359"/>
      <point x="289" y="377" type="curve" smooth="yes"/>
      <point x="288" y="426"/>
      <point x="256" y="462"/>
      <point x="200" y="462" type="curve" smooth="yes"/>
      <point x="117" y="462"/>
      <point x="56" y="392"/>
      <point x="31" y="310" type="curve"/>
      <point x="78" y="300" type="line"/>
      <point x="101" y="368"/>
      <point x="144" y="418"/>
      <point x="172" y="418" type="curve" smooth="yes"/>
      <point x="182" y="418"/>
      <point x="186" y="410"/>
      <point x="186" y="392" type="curve" smooth="yes"/>
      <point x="186" y="373"/>
      <point x="179" y="347"/>
      <point x="165" y="312" type="curve" smooth="yes"/>
      <point x="154" y="282"/>
      <point x="143" y="251"/>
      <point x="131" y="221" type="curve" smooth="yes"/>
      <point x="116" y="182"/>
      <point x="108" y="144"/>
      <point x="108" y="111" type="curve" smooth="yes"/>
      <point x="108" y="41"/>
      <point x="146" y="-12"/>
      <point x="241" y="-12" type="curve" smooth="yes"/>
      <point x="406" y="-12"/>
      <point x="495" y="210"/>
    </contour>
  </outline>
</glyph>
<glyph name="uni0080" format="2">
  <advance width="344"/>
  <unicode hex="0080"/>
  <outline>
    <contour>
      <point x="447" y="414" type="curve" smooth="yes"/>
      <point x="455" y="414"/>
      <point x="458" y="396"/>
      <point x="458" y="372" type="curve" smooth="yes"/>
      <point x="458" y="336"/>
      <point x="446" y="287"/>
      <point x="438" y="261" type="curve" smooth="yes"/>
      <point x="353" y="0" type="line"/>
      <point x="463" y="0" type="line"/>
      <point x="539" y="233" type="line" smooth="yes"/>
      <point x="561" y="303"/>
      <point x="584" y="362"/>
      <point x="623" y="393" type="curve" smooth="yes"/>
      <point x="628" y="397"/>
      <point x="631" y="400"/>
      <point x="632" y="400" type="curve"/>
      <point x="634" y="400"/>
      <point x="637" y="391"/>
      <point x="639" y="373" type="curve" smooth="yes"/>
      <point x="642" y="343"/>
      <point x="667" y="327"/>
      <point x="698" y="327" type="curve" smooth="yes"/>
      <point x="738" y="327"/>
      <point x="764" y="359"/>
      <point x="764" y="396" type="curve" smooth="yes"/>
      <point x="764" y="434"/>
      <point x="728" y="463"/>
      <point x="684" y="463" type="curve" smooth="yes"/>
      <point x="644" y="463"/>
      <point x="600" y="434"/>
      <point x="561" y="386" type="curve"/>
      <point x="553" y="427"/>
      <point x="529" y="458"/>
      <point x="476" y="458" type="curve" smooth="yes"/>
      <point x="397" y="458"/>
      <point x="339" y="366"/>
      <point x="300" y="240" type="curve"/>
      <point x="350" y="240" type="line"/>
      <point x="385" y="344"/>
      <point x="422" y="414"/>
    </contour>
    <contour>
      <point x="53" y="418" type="line"/>
      <point x="135" y="418" type="line"/>
      <point x="45" y="142" type="line" smooth="yes"/>
      <point x="38" y="121"/>
      <point x="35" y="101"/>
      <point x="35" y="84" type="curve" smooth="yes"/>
      <point x="35" y="30"/>
      <point x="68" y="-8"/>
      <point x="132" y="-8" type="curve" smooth="yes"/>
      <point x="197" y="-8"/>
      <point x="271" y="50"/>
      <point x="309" y="171" type="curve"/>
      <point x="259" y="171" type="line"/>
      <point x="224" y="67"/>
      <point x="173" y="36"/>
      <point x="151" y="36" type="curve" smooth="yes"/>
      <point x="140" y="36"/>
      <point x="135" y="44"/>
      <point x="135" y="61" type="curve" smooth="yes"/>
      <point x="135" y="80"/>
      <point x="143" y="107"/>
      <point x="155" y="142" type="curve" smooth="yes"/>
      <point x="185" y="234"/>
      <point x="215" y="326"/>
      <point x="245" y="418" type="curve"/>
      <point x="235" y="418" type="line"/>
      <point x="344" y="418" type="line"/>
      <point x="354" y="450" type="line"/>
      <point x="255" y="450" type="line"/>
      <point x="313" y="626" type="line"/>
      <point x="188" y="581" type="line"/>
      <point x="145" y="450" type="line"/>
      <point x="63" y="450" type="line"/>
    </contour>
  </outline>
</glyph>
<glyph name="exclamdown" format="2">
  <advance width="293"/>
  <unicode hex="00A1"/>
  <outline>
    <contour>
      <point x="211" y="337" type="curve" smooth="yes"/>
      <point x="172" y="337"/>
      <point x="143" y="366"/>
      <point x="143" y="405" type="curve" smooth="yes"/>
      <point x="143" y="443"/>
      <point x="172" y="472"/>
      <point x="211" y="472" type="curve" smooth="yes"/>
      <point x="250" y="472"/>
      <point x="278" y="443"/>
      <point x="278" y="405" type="curve" smooth="yes"/>
      <point x="278" y="366"/>
      <point x="250" y="337"/>
    </contour>
    <contour>
      <point x="53" y="-250" type="curve" smooth="yes"/>
      <point x="16" y="-250"/>
      <point x="-4" y="-222"/>
      <point x="-4" y="-174" type="curve" smooth="yes"/>
      <point x="-4" y="-142"/>
      <point x="18" y="-89"/>
      <point x="54" y="-1" type="curve" smooth="yes"/>
      <point x="76" y="49"/>
      <point x="91" y="85"/>
      <point x="99" y="107" type="curve" smooth="yes"/>
      <point x="171" y="301" type="line"/>
      <point x="205" y="301" type="line"/>
      <point x="168" y="90" type="line" smooth="yes"/>
      <point x="159" y="43"/>
      <point x="152" y="-1"/>
      <point x="148" y="-42" type="curve" smooth="yes"/>
      <point x="143" y="-94"/>
      <point x="136" y="-138"/>
      <point x="129" y="-175" type="curve"/>
      <point x="118" y="-226"/>
      <point x="94" y="-250"/>
    </contour>
  </outline>
</glyph>
<glyph name="sterling" format="2">
  <advance width="735"/>
  <unicode hex="00A3"/>
  <outline>
    <contour>
      <point x="52" y="-16" type="curve" smooth="yes"/>
      <point x="6" y="-16"/>
      <point x="-33" y="5"/>
      <point x="-33" y="46" type="curve" smooth="yes"/>
      <point x="-33" y="122"/>
      <point x="56" y="147"/>
      <point x="117" y="147" type="curve" smooth="yes"/>
      <point x="151" y="147"/>
      <point x="186" y="142"/>
      <point x="223" y="133" type="curve"/>
      <point x="248" y="178"/>
      <point x="269" y="240"/>
      <point x="291" y="324" type="curve"/>
      <point x="254" y="328"/>
      <point x="227" y="331"/>
      <point x="206" y="331" type="curve" smooth="yes"/>
      <point x="167" y="331"/>
      <point x="148" y="324"/>
      <point x="110" y="307" type="curve"/>
      <point x="99" y="338" type="line"/>
      <point x="124" y="356"/>
      <point x="163" y="370"/>
      <point x="206" y="370" type="curve" smooth="yes"/>
      <point x="234" y="370"/>
      <point x="265" y="367"/>
      <point x="300" y="361" type="curve"/>
      <point x="361" y="596"/>
      <point x="456" y="716"/>
      <point x="583" y="716" type="curve" smooth="yes"/>
      <point x="680" y="716"/>
      <point x="711" y="644"/>
      <point x="711" y="598" type="curve" smooth="yes"/>
      <point x="711" y="548"/>
      <point x="678" y="514"/>
      <point x="640" y="514" type="curve" smooth="yes"/>
      <point x="606" y="514"/>
      <point x="574" y="531"/>
      <point x="574" y="571" type="curve" smooth="yes"/>
      <point x="574" y="602"/>
      <point x="594" y="615"/>
      <point x="616" y="615" type="curve" smooth="yes"/>
      <point x="625" y="615"/>
      <point x="632" y="613"/>
      <point x="639" y="610" type="curve"/>
      <point x="643" y="609"/>
      <point x="648" y="607"/>
      <point x="653" y="607" type="curve" smooth="yes"/>
      <point x="661" y="607"/>
      <point x="665" y="609"/>
      <point x="665" y="620" type="curve" smooth="yes"/>
      <point x="665" y="651"/>
      <point x="640" y="684"/>
      <point x="582" y="684" type="curve" smooth="yes"/>
      <point x="546" y="684"/>
      <point x="516" y="671"/>
      <point x="494" y="644" type="curve" smooth="yes"/>
      <point x="446" y="589"/>
      <point x="425" y="510"/>
      <point x="404" y="408" type="curve"/>
      <point x="400" y="385"/>
      <point x="396" y="364"/>
      <point x="390" y="344" type="curve"/>
      <point x="423" y="338"/>
      <point x="456" y="335"/>
      <point x="489" y="335" type="curve" smooth="yes"/>
      <point x="527" y="335"/>
      <point x="554" y="343"/>
      <point x="584" y="359" type="curve"/>
      <point x="595" y="328" type="line"/>
      <point x="574" y="310"/>
      <point x="530" y="297"/>
      <point x="489" y="297" type="curve" smooth="yes"/>
      <point x="457" y="297"/>
      <point x="420" y="301"/>
      <point x="378" y="307" type="curve"/>
      <point x="354" y="230"/>
      <point x="321" y="166"/>
      <point x="281" y="114" type="curve"/>
      <point x="290" y="111"/>
      <point x="297" y="108"/>
      <point x="305" y="106" type="curve" smooth="yes"/>
      <point x="312" y="103"/>
      <point x="319" y="100"/>
      <point x="326" y="98" type="curve"/>
      <point x="384" y="74"/>
      <point x="421" y="62"/>
      <point x="456" y="62" type="curve" smooth="yes"/>
      <point x="569" y="62"/>
      <point x="639" y="130"/>
      <point x="662" y="238" type="curve"/>
      <point x="692" y="230" type="line"/>
      <point x="663" y="81"/>
      <point x="583" y="-16"/>
      <point x="425" y="-16" type="curve" smooth="yes"/>
      <point x="373" y="-16"/>
      <point x="323" y="4"/>
      <point x="254" y="43" type="curve"/>
      <point x="228" y="56" type="line"/>
      <point x="174" y="9"/>
      <point x="115" y="-16"/>
    </contour>
    <contour>
      <point x="56" y="18" type="curve" smooth="yes"/>
      <point x="105" y="18"/>
      <point x="147" y="38"/>
      <point x="183" y="77" type="curve"/>
      <point x="144" y="94"/>
      <point x="106" y="103"/>
      <point x="73" y="103" type="curve" smooth="yes"/>
      <point x="39" y="103"/>
      <point x="5" y="81"/>
      <point x="5" y="48" type="curve" smooth="yes"/>
      <point x="5" y="24"/>
      <point x="28" y="18"/>
    </contour>
  </outline>
</glyph>
<glyph name="copyright" format="2">
  <advance width="839"/>
  <unicode hex="00A9"/>
  <outline>
    <contour>
      <point x="443" y="-18" type="curve" smooth="yes"/>
      <point x="235" y="-18"/>
      <point x="74" y="157"/>
      <point x="74" y="365" type="curve" smooth="yes"/>
      <point x="74" y="574"/>
      <point x="234" y="747"/>
      <point x="443" y="747" type="curve" smooth="yes"/>
      <point x="652" y="747"/>
      <point x="814" y="574"/>
      <point x="814" y="365" type="curve" smooth="yes"/>
      <point x="814" y="154"/>
      <point x="654" y="-18"/>
    </contour>
    <contour>
      <point x="443" y="20" type="curve" smooth="yes"/>
      <point x="635" y="20"/>
      <point x="776" y="179"/>
      <point x="776" y="365" type="curve" smooth="yes"/>
      <point x="776" y="549"/>
      <point x="633" y="709"/>
      <point x="443" y="709" type="curve" smooth="yes"/>
      <point x="255" y="709"/>
      <point x="111" y="548"/>
      <point x="111" y="365" type="curve" smooth="yes"/>
      <point x="111" y="181"/>
      <point x="254" y="20"/>
    </contour>
    <contour>
      <point x="456" y="111" type="curve" smooth="yes"/>
      <point x="326" y="111"/>
      <point x="247" y="221"/>
      <point x="247" y="346" type="curve" smooth="yes"/>
      <point x="247" y="499"/>
      <point x="327" y="605"/>
      <point x="458" y="605" type="curve" smooth="yes"/>
      <point x="486" y="605"/>
      <point x="514" y="594"/>
      <point x="544" y="571" type="curve" smooth="yes"/>
      <point x="551" y="565"/>
      <point x="553" y="565"/>
      <point x="561" y="565" type="curve" smooth="yes"/>
      <point x="570" y="565"/>
      <point x="578" y="583"/>
      <point x="578" y="599" type="curve"/>
      <point x="606" y="599" type="line"/>
      <point x="606" y="424" type="line"/>
      <point x="578" y="424" type="line"/>
      <point x="576" y="451"/>
      <point x="568" y="477"/>
      <point x="556" y="499" type="curve"/>
      <point x="529" y="543"/>
      <point x="488" y="572"/>
      <point x="458" y="572" type="curve" smooth="yes"/>
      <point x="383" y="572"/>
      <point x="346" y="497"/>
      <point x="346" y="346" type="curve" smooth="yes"/>
      <point x="346" y="278"/>
      <point x="366" y="145"/>
      <point x="456" y="145" type="curve" smooth="yes"/>
      <point x="543" y="145"/>
      <point x="571" y="216"/>
      <point x="581" y="291" type="curve"/>
      <point x="614" y="291" type="line"/>
      <point x="608" y="197"/>
      <point x="560" y="111"/>
    </contour>
  </outline>
</glyph>
<glyph name="registered" format="2">
  <advance width="839"/>
  <unicode hex="00AE"/>
  <outline>
    <contour>
      <point x="443" y="-18" type="curve" smooth="yes"/>
      <point x="235" y="-18"/>
      <point x="74" y="157"/>
      <point x="74" y="365" type="curve" smooth="yes"/>
      <point x="74" y="574"/>
      <point x="234" y="747"/>
      <point x="443" y="747" type="curve" smooth="yes"/>
      <point x="652" y="747"/>
      <point x="814" y="574"/>
      <point x="814" y="365" type="curve" smooth="yes"/>
      <point x="814" y="154"/>
      <point x="654" y="-18"/>
    </contour>
    <contour>
      <point x="443" y="20" type="curve" smooth="yes"/>
      <point x="635" y="20"/>
      <point x="776" y="179"/>
      <point x="776" y="365" type="curve" smooth="yes"/>
      <point x="776" y="549"/>
      <point x="633" y="709"/>
      <point x="443" y="709" type="curve" smooth="yes"/>
      <point x="255" y="709"/>
      <point x="111" y="548"/>
      <point x="111" y="365" type="curve" smooth="yes"/>
      <point x="111" y="181"/>
      <point x="254" y="20"/>
    </contour>
    <contour>
      <point x="604" y="119" type="curve" smooth="yes"/>
      <point x="540" y="119"/>
      <point x="510" y="165"/>
      <point x="510" y="226" type="curve" smooth="yes"/>
      <point x="510" y="281" type="line" smooth="yes"/>
      <point x="510" y="340"/>
      <point x="480" y="362"/>
      <point x="448" y="362" type="curve" smooth="yes"/>
      <point x="375" y="362" type="line"/>
      <point x="375" y="182" type="line" smooth="yes"/>
      <point x="375" y="171"/>
      <point x="379" y="166"/>
      <point x="391" y="166" type="curve" smooth="yes"/>
      <point x="441" y="166" type="line"/>
      <point x="441" y="131" type="line"/>
      <point x="227" y="131" type="line"/>
      <point x="227" y="166" type="line"/>
      <point x="274" y="166" type="line" smooth="yes"/>
      <point x="287" y="166"/>
      <point x="292" y="171"/>
      <point x="292" y="182" type="curve" smooth="yes"/>
      <point x="292" y="550" type="line" smooth="yes"/>
      <point x="292" y="562"/>
      <point x="287" y="567"/>
      <point x="274" y="567" type="curve" smooth="yes"/>
      <point x="227" y="567" type="line"/>
      <point x="227" y="601" type="line"/>
      <point x="462" y="601" type="line" smooth="yes"/>
      <point x="549" y="601"/>
      <point x="614" y="560"/>
      <point x="614" y="485" type="curve" smooth="yes"/>
      <point x="614" y="418"/>
      <point x="561" y="385"/>
      <point x="502" y="374" type="curve"/>
      <point x="506" y="378" type="line"/>
      <point x="506" y="374" type="line"/>
      <point x="502" y="379" type="line"/>
      <point x="547" y="371"/>
      <point x="589" y="339"/>
      <point x="597" y="258" type="curve" smooth="yes"/>
      <point x="599" y="235" type="line" smooth="yes"/>
      <point x="603" y="188"/>
      <point x="607" y="166"/>
      <point x="630" y="166" type="curve" smooth="yes"/>
      <point x="664" y="166"/>
      <point x="667" y="233"/>
      <point x="667" y="256" type="curve"/>
      <point x="695" y="256" type="line"/>
      <point x="695" y="194"/>
      <point x="681" y="119"/>
    </contour>
    <contour>
      <point x="446" y="395" type="line" smooth="yes"/>
      <point x="488" y="395"/>
      <point x="515" y="426"/>
      <point x="515" y="479" type="curve" smooth="yes"/>
      <point x="515" y="534"/>
      <point x="494" y="567"/>
      <point x="445" y="567" type="curve" smooth="yes"/>
      <point x="391" y="567" type="line" smooth="yes"/>
      <point x="379" y="567"/>
      <point x="375" y="562"/>
      <point x="375" y="550" type="curve" smooth="yes"/>
      <point x="375" y="395" type="line"/>
    </contour>
  </outline>
</glyph>
<glyph name="macron" format="2">
  <advance width="534"/>
  <unicode hex="00AF"/>
  <anchor x="350" y="494" name="_t.asciicircum_1"/>
  <outline>
    <contour>
      <point x="193" y="551" type="line"/>
      <point x="205" y="601" type="line"/>
      <point x="531" y="601" type="line"/>
      <point x="519" y="551" type="line"/>
    </contour>
  </outline>
</glyph>
<glyph name="plusminus" format="2">
  <advance width="580"/>
  <unicode hex="00B1"/>
  <outline>
    <contour>
      <point x="500" y="74" type="line"/>
      <point x="80" y="74" type="line"/>
      <point x="80" y="15" type="line"/>
      <point x="500" y="15" type="line"/>
    </contour>
    <contour>
      <point x="319" y="336" type="line"/>
      <point x="319" y="507" type="line"/>
      <point x="260" y="507" type="line"/>
      <point x="260" y="336" type="line"/>
      <point x="90" y="336" type="line"/>
      <point x="90" y="277" type="line"/>
      <point x="260" y="277" type="line"/>
      <point x="260" y="106" type="line"/>
      <point x="319" y="106" type="line"/>
      <point x="319" y="277" type="line"/>
      <point x="490" y="277" type="line"/>
      <point x="490" y="336" type="line"/>
    </contour>
  </outline>
</glyph>
<glyph name="periodcentered" format="2">
  <advance width="295"/>
  <unicode hex="00B7"/>
  <outline>
    <contour>
      <point x="203" y="256" type="curve" smooth="yes"/>
      <point x="164" y="256"/>
      <point x="135" y="285"/>
      <point x="135" y="324" type="curve" smooth="yes"/>
      <point x="135" y="363"/>
      <point x="164" y="391"/>
      <point x="203" y="391" type="curve" smooth="yes"/>
      <point x="242" y="391"/>
      <point x="270" y="363"/>
      <point x="270" y="324" type="curve" smooth="yes"/>
      <point x="270" y="285"/>
      <point x="242" y="256"/>
    </contour>
  </outline>
</glyph>
<glyph name="onesuperior" format="2">
  <advance width="387"/>
  <unicode hex="00B9"/>
  <outline>
    <contour>
      <point x="254" y="306" type="curve" smooth="yes"/>
      <point x="367" y="700" type="line"/>
      <point x="312" y="700" type="line"/>
      <point x="147" y="556" type="line"/>
      <point x="167" y="529" type="line"/>
      <point x="253" y="589" type="line" smooth="yes"/>
      <point x="255" y="590"/>
      <point x="258" y="591"/>
      <point x="260" y="592" type="curve"/>
      <point x="261" y="591"/>
      <point x="262" y="589"/>
      <point x="262" y="586" type="curve"/>
      <point x="262" y="584"/>
      <point x="262" y="582"/>
      <point x="261" y="579" type="curve" smooth="yes"/>
      <point x="179" y="307" type="line" smooth="yes"/>
      <point x="174" y="289"/>
      <point x="163" y="279"/>
      <point x="143" y="279" type="curve" smooth="yes"/>
      <point x="109" y="279" type="line"/>
      <point x="101" y="246" type="line"/>
      <point x="318" y="246" type="line"/>
      <point x="328" y="279" type="line"/>
      <point x="272" y="279" type="line" smooth="yes"/>
      <point x="258" y="279"/>
      <point x="251" y="283"/>
      <point x="251" y="292" type="curve" smooth="yes"/>
      <point x="251" y="296"/>
      <point x="252" y="300"/>
    </contour>
  </outline>
</glyph>
<glyph name="ordmasculine" format="2">
  <advance width="394"/>
  <unicode hex="00BA"/>
  <outline>
    <contour>
      <point x="230" y="411" type="curve" smooth="yes"/>
      <point x="175" y="411"/>
      <point x="138" y="453"/>
      <point x="138" y="514" type="curve" smooth="yes"/>
      <point x="138" y="602"/>
      <point x="216" y="710"/>
      <point x="308" y="710" type="curve" smooth="yes"/>
      <point x="366" y="710"/>
      <point x="402" y="666"/>
      <point x="402" y="604" type="curve" smooth="yes"/>
      <point x="402" y="515"/>
      <point x="323" y="411"/>
    </contour>
    <contour>
      <point x="235" y="438" type="curve" smooth="yes"/>
      <point x="304" y="438"/>
      <point x="341" y="575"/>
      <point x="341" y="627" type="curve" smooth="yes"/>
      <point x="341" y="661"/>
      <point x="330" y="681"/>
      <point x="304" y="681" type="curve" smooth="yes"/>
      <point x="237" y="681"/>
      <point x="200" y="540"/>
      <point x="200" y="490" type="curve" smooth="yes"/>
      <point x="200" y="458"/>
      <point x="211" y="438"/>
    </contour>
    <contour>
      <point x="90" y="363" type="line"/>
      <point x="100" y="396" type="line"/>
      <point x="352" y="396" type="line"/>
      <point x="343" y="363" type="line"/>
    </contour>
  </outline>
</glyph>
<glyph name="onequarter" format="2">
  <advance width="869"/>
  <unicode hex="00BC"/>
  <outline>
    <contour>
      <point x="257" y="-20" type="line"/>
      <point x="222" y="4" type="line"/>
      <point x="672" y="720" type="line"/>
      <point x="706" y="696" type="line"/>
    </contour>
    <contour>
      <point x="121" y="316" type="line"/>
      <point x="180" y="316" type="line" smooth="yes"/>
      <point x="189" y="316"/>
      <point x="195" y="319"/>
      <point x="197" y="328" type="curve"/>
      <point x="275" y="601" type="line"/>
      <point x="256" y="592"/>
      <point x="234" y="586"/>
      <point x="204" y="580" type="curve"/>
      <point x="199" y="611" type="line"/>
      <point x="251" y="620"/>
      <point x="311" y="654"/>
      <point x="347" y="709" type="curve"/>
      <point x="379" y="709" type="line"/>
      <point x="271" y="324" type="line"/>
      <point x="270" y="324"/>
      <point x="270" y="323"/>
      <point x="270" y="321" type="curve"/>
      <point x="270" y="318"/>
      <point x="273" y="316"/>
      <point x="279" y="316" type="curve" smooth="yes"/>
      <point x="342" y="316" type="line"/>
      <point x="332" y="283" type="line"/>
      <point x="111" y="283" type="line"/>
    </contour>
    <contour>
      <point x="564" y="35" type="line"/>
      <point x="626" y="35" type="line" smooth="yes"/>
      <point x="635" y="35"/>
      <point x="640" y="38"/>
      <point x="642" y="46" type="curve" smooth="yes"/>
      <point x="660" y="113" type="line"/>
      <point x="499" y="113" type="line"/>
      <point x="510" y="147" type="line"/>
      <point x="642" y="270" type="line" smooth="yes"/>
      <point x="693" y="317"/>
      <point x="730" y="379"/>
      <point x="738" y="430" type="curve"/>
      <point x="821" y="430" type="line"/>
      <point x="808" y="374"/>
      <point x="783" y="347"/>
      <point x="742" y="309" type="curve" smooth="yes"/>
      <point x="563" y="149" type="line"/>
      <point x="670" y="149" type="line"/>
      <point x="700" y="248" type="line"/>
      <point x="734" y="269"/>
      <point x="760" y="302"/>
      <point x="774" y="334" type="curve"/>
      <point x="795" y="334" type="line"/>
      <point x="746" y="149" type="line"/>
      <point x="847" y="149" type="line"/>
      <point x="837" y="113" type="line"/>
      <point x="735" y="113" type="line"/>
      <point x="715" y="37" type="line"/>
      <point x="716" y="36"/>
      <point x="718" y="35"/>
      <point x="722" y="35" type="curve" smooth="yes"/>
      <point x="787" y="35" type="line"/>
      <point x="780" y="0" type="line"/>
      <point x="556" y="0" type="line"/>
    </contour>
  </outline>
</glyph>
<glyph name="questiondown" format="2">
  <advance width="382"/>
  <unicode hex="00BF"/>
  <outline>
    <contour>
      <point x="322" y="633" type="curve" smooth="yes"/>
      <point x="322" y="669"/>
      <point x="293" y="699"/>
      <point x="256" y="699" type="curve" smooth="yes"/>
      <point x="220" y="699"/>
      <point x="190" y="669"/>
      <point x="190" y="633" type="curve" smooth="yes"/>
      <point x="190" y="596"/>
      <point x="220" y="567"/>
      <point x="256" y="567" type="curve" smooth="yes"/>
      <point x="293" y="567"/>
      <point x="322" y="596"/>
    </contour>
    <contour>
      <point x="187" y="464" type="curve" smooth="yes"/>
      <point x="209" y="464"/>
      <point x="219" y="448"/>
      <point x="219" y="423" type="curve" smooth="yes"/>
      <point x="219" y="382"/>
      <point x="176" y="346"/>
      <point x="117" y="295" type="curve" smooth="yes"/>
      <point x="110" y="289"/>
      <point x="103" y="282"/>
      <point x="96" y="276" type="curve" smooth="yes"/>
      <point x="85" y="267" type="line"/>
      <point x="25" y="213"/>
      <point x="-20" y="173"/>
      <point x="-20" y="106" type="curve" smooth="yes"/>
      <point x="-20" y="38"/>
      <point x="40" y="0"/>
      <point x="105" y="0" type="curve" smooth="yes"/>
      <point x="183" y="0"/>
      <point x="246" y="50"/>
      <point x="259" y="127" type="curve"/>
      <point x="219" y="137" type="line"/>
      <point x="207" y="70"/>
      <point x="156" y="46"/>
      <point x="120" y="46" type="curve" smooth="yes"/>
      <point x="90" y="46"/>
      <point x="70" y="68"/>
      <point x="70" y="91" type="curve" smooth="yes"/>
      <point x="70" y="132"/>
      <point x="108" y="173"/>
      <point x="178" y="227" type="curve" smooth="yes"/>
      <point x="249" y="283"/>
      <point x="294" y="333"/>
      <point x="294" y="400" type="curve" smooth="yes"/>
      <point x="294" y="460"/>
      <point x="251" y="505"/>
      <point x="196" y="505" type="curve" smooth="yes"/>
      <point x="141" y="505"/>
      <point x="88" y="468"/>
      <point x="64" y="416" type="curve"/>
      <point x="103" y="401" type="line"/>
      <point x="121" y="436"/>
      <point x="153" y="464"/>
    </contour>
  </outline>
</glyph>
<glyph name="Aring" format="2">
  <advance width="661"/>
  <unicode hex="00C5"/>
  <outline>
    <contour>
      <point x="209" y="252" type="line"/>
      <point x="373" y="531" type="line"/>
      <point x="403" y="252" type="line"/>
      <point x="413" y="252" type="line"/>
    </contour>
    <contour>
      <point x="188" y="217" type="line"/>
      <point x="407" y="217" type="line"/>
      <point x="418" y="109" type="line"/>
      <point x="418" y="102"/>
      <point x="419" y="96"/>
      <point x="419" y="90" type="curve" smooth="yes"/>
      <point x="419" y="47"/>
      <point x="402" y="35"/>
      <point x="366" y="35" type="curve" smooth="yes"/>
      <point x="328" y="35" type="line"/>
      <point x="318" y="0" type="line"/>
      <point x="633" y="0" type="line"/>
      <point x="643" y="35" type="line"/>
      <point x="599" y="35" type="line" smooth="yes"/>
      <point x="572" y="35"/>
      <point x="551" y="42"/>
      <point x="543" y="106" type="curve" smooth="yes"/>
      <point x="471" y="692" type="line"/>
      <point x="403" y="692" type="line"/>
      <point x="64" y="116" type="line" smooth="yes"/>
      <point x="18" y="36"/>
      <point x="-14" y="35"/>
      <point x="-45" y="35" type="curve" smooth="yes"/>
      <point x="-80" y="35" type="line"/>
      <point x="-90" y="0" type="line"/>
      <point x="185" y="0" type="line"/>
      <point x="195" y="35" type="line"/>
      <point x="158" y="35" type="line" smooth="yes"/>
      <point x="126" y="35"/>
      <point x="108" y="40"/>
      <point x="108" y="62" type="curve" smooth="yes"/>
      <point x="108" y="76"/>
      <point x="115" y="93"/>
      <point x="129" y="117" type="curve" smooth="yes"/>
    </contour>
  </outline>
</glyph>
<glyph name="Egrave" format="2">
  <advance width="658"/>
  <unicode hex="00C8"/>
  <outline>
    <contour>
      <point x="464" y="867" type="line"/>
      <point x="336" y="881" type="line"/>
      <point x="329" y="862" type="line"/>
      <point x="373" y="828"/>
      <point x="499" y="739"/>
      <point x="557" y="707" type="curve"/>
      <point x="567" y="734" type="line"/>
      <point x="536" y="764"/>
      <point x="488" y="826"/>
      <point x="464" y="868" type="curve"/>
    </contour>
    <contour>
      <point x="155" y="680" type="line"/>
      <point x="145" y="645" type="line"/>
      <point x="205" y="645" type="line" smooth="yes"/>
      <point x="225" y="645"/>
      <point x="234" y="636"/>
      <point x="234" y="616" type="curve" smooth="yes"/>
      <point x="234" y="609"/>
      <point x="233" y="602"/>
      <point x="231" y="595" type="curve" smooth="yes"/>
      <point x="84" y="85" type="line" smooth="yes"/>
      <point x="74" y="50"/>
      <point x="58" y="35"/>
      <point x="30" y="35" type="curve" smooth="yes"/>
      <point x="-10" y="35" type="line"/>
      <point x="-20" y="0" type="line"/>
      <point x="533" y="0" type="line"/>
      <point x="618" y="280" type="line"/>
      <point x="569" y="280" type="line"/>
      <point x="512" y="159"/>
      <point x="439" y="36"/>
      <point x="304" y="36" type="curve" smooth="yes"/>
      <point x="231" y="36" type="line" smooth="yes"/>
      <point x="214" y="36"/>
      <point x="201" y="50"/>
      <point x="201" y="69" type="curve" smooth="yes"/>
      <point x="201" y="73"/>
      <point x="201" y="77"/>
      <point x="202" y="79" type="curve" smooth="yes"/>
      <point x="227" y="165"/>
      <point x="252" y="251"/>
      <point x="277" y="337" type="curve"/>
      <point x="267" y="337" type="line"/>
      <point x="317" y="337" type="line" smooth="yes"/>
      <point x="358" y="337"/>
      <point x="379" y="304"/>
      <point x="379" y="242" type="curve" smooth="yes"/>
      <point x="379" y="222"/>
      <point x="377" y="199"/>
      <point x="372" y="175" type="curve"/>
      <point x="425" y="175" type="line"/>
      <point x="522" y="512" type="line"/>
      <point x="469" y="512" type="line"/>
      <point x="436" y="425"/>
      <point x="393" y="372"/>
      <point x="340" y="372" type="curve" smooth="yes"/>
      <point x="287" y="372" type="line"/>
      <point x="353" y="604" type="line" smooth="yes"/>
      <point x="360" y="628"/>
      <point x="394" y="644"/>
      <point x="419" y="644" type="curve" smooth="yes"/>
      <point x="482" y="644" type="line" smooth="yes"/>
      <point x="568" y="644"/>
      <point x="601" y="585"/>
      <point x="601" y="482" type="curve" smooth="yes"/>
      <point x="601" y="471"/>
      <point x="601" y="458"/>
      <point x="600" y="445" type="curve"/>
      <point x="649" y="445" type="line"/>
      <point x="697" y="680" type="line"/>
    </contour>
  </outline>
</glyph>
<glyph name="Iacute" format="2">
  <advance width="393"/>
  <unicode hex="00CD"/>
  <outline>
    <contour>
      <point x="309" y="857" type="line"/>
      <point x="285" y="815"/>
      <point x="237" y="754"/>
      <point x="206" y="724" type="curve"/>
      <point x="216" y="697" type="line"/>
      <point x="274" y="729"/>
      <point x="400" y="818"/>
      <point x="444" y="852" type="curve"/>
      <point x="437" y="871" type="line"/>
    </contour>
    <contour>
      <point x="361" y="595" type="line" smooth="yes"/>
      <point x="371" y="630"/>
      <point x="387" y="645"/>
      <point x="415" y="645" type="curve" smooth="yes"/>
      <point x="460" y="645" type="line"/>
      <point x="470" y="680" type="line"/>
      <point x="165" y="680" type="line"/>
      <point x="155" y="645" type="line"/>
      <point x="210" y="645" type="line" smooth="yes"/>
      <point x="230" y="645"/>
      <point x="239" y="636"/>
      <point x="239" y="616" type="curve" smooth="yes"/>
      <point x="239" y="609"/>
      <point x="238" y="602"/>
      <point x="236" y="595" type="curve" smooth="yes"/>
      <point x="89" y="85" type="line" smooth="yes"/>
      <point x="79" y="50"/>
      <point x="63" y="35"/>
      <point x="35" y="35" type="curve" smooth="yes"/>
      <point x="-10" y="35" type="line"/>
      <point x="-20" y="0" type="line"/>
      <point x="285" y="0" type="line"/>
      <point x="295" y="35" type="line"/>
      <point x="240" y="35" type="line" smooth="yes"/>
      <point x="221" y="35"/>
      <point x="212" y="44"/>
      <point x="212" y="63" type="curve" smooth="yes"/>
      <point x="212" y="70"/>
      <point x="213" y="78"/>
      <point x="215" y="85" type="curve" smooth="yes"/>
    </contour>
  </outline>
</glyph>
<glyph name="Icircumflex" format="2">
  <advance width="393"/>
  <unicode hex="00CE"/>
  <outline>
    <contour>
      <point x="298" y="876" type="line"/>
      <point x="270" y="834"/>
      <point x="208" y="759"/>
      <point x="175" y="730" type="curve"/>
      <point x="185" y="703" type="line"/>
      <point x="225" y="727"/>
      <point x="284" y="768"/>
      <point x="329" y="802" type="curve"/>
      <point x="361" y="764"/>
      <point x="397" y="729"/>
      <point x="426" y="700" type="curve"/>
      <point x="460" y="712" type="line"/>
      <point x="435" y="750"/>
      <point x="395" y="830"/>
      <point x="378" y="876" type="curve"/>
    </contour>
    <contour>
      <point x="361" y="595" type="line" smooth="yes"/>
      <point x="371" y="630"/>
      <point x="387" y="645"/>
      <point x="415" y="645" type="curve" smooth="yes"/>
      <point x="460" y="645" type="line"/>
      <point x="470" y="680" type="line"/>
      <point x="165" y="680" type="line"/>
      <point x="155" y="645" type="line"/>
      <point x="210" y="645" type="line" smooth="yes"/>
      <point x="230" y="645"/>
      <point x="239" y="636"/>
      <point x="239" y="616" type="curve" smooth="yes"/>
      <point x="239" y="609"/>
      <point x="238" y="602"/>
      <point x="236" y="595" type="curve" smooth="yes"/>
      <point x="89" y="85" type="line" smooth="yes"/>
      <point x="79" y="50"/>
      <point x="63" y="35"/>
      <point x="35" y="35" type="curve" smooth="yes"/>
      <point x="-10" y="35" type="line"/>
      <point x="-20" y="0" type="line"/>
      <point x="285" y="0" type="line"/>
      <point x="295" y="35" type="line"/>
      <point x="240" y="35" type="line" smooth="yes"/>
      <point x="221" y="35"/>
      <point x="212" y="44"/>
      <point x="212" y="63" type="curve" smooth="yes"/>
      <point x="212" y="70"/>
      <point x="213" y="78"/>
      <point x="215" y="85" type="curve" smooth="yes"/>
    </contour>
  </outline>
</glyph>
<glyph name="Ucircumflex" format="2">
  <advance width="742"/>
  <unicode hex="00DB"/>
  <outline>
    <contour>
      <point x="456" y="876" type="line"/>
      <point x="428" y="834"/>
      <point x="366" y="759"/>
      <point x="333" y="730" type="curve"/>
      <point x="343" y="703" type="line"/>
      <point x="383" y="727"/>
      <point x="442" y="768"/>
      <point x="487" y="802" type="curve"/>
      <point x="519" y="764"/>
      <point x="555" y="729"/>
      <point x="584" y="700" type="curve"/>
      <point x="618" y="712" type="line"/>
      <point x="593" y="750"/>
      <point x="553" y="830"/>
      <point x="536" y="876" type="curve"/>
    </contour>
    <contour>
      <point x="683" y="595" type="line" smooth="yes"/>
      <point x="693" y="630"/>
      <point x="709" y="645"/>
      <point x="737" y="645" type="curve" smooth="yes"/>
      <point x="787" y="645" type="line"/>
      <point x="797" y="680" type="line"/>
      <point x="535" y="680" type="line"/>
      <point x="525" y="645" type="line"/>
      <point x="595" y="645" type="line" smooth="yes"/>
      <point x="615" y="645"/>
      <point x="624" y="636"/>
      <point x="624" y="616" type="curve" smooth="yes"/>
      <point x="624" y="609"/>
      <point x="623" y="602"/>
      <point x="621" y="595" type="curve" smooth="yes"/>
      <point x="529" y="274" type="line" smooth="yes"/>
      <point x="495" y="154"/>
      <point x="429" y="31"/>
      <point x="317" y="31" type="curve" smooth="yes"/>
      <point x="256" y="31"/>
      <point x="232" y="66"/>
      <point x="232" y="131" type="curve" smooth="yes"/>
      <point x="232" y="173"/>
      <point x="243" y="226"/>
      <point x="261" y="288" type="curve" smooth="yes"/>
      <point x="349" y="595" type="line" smooth="yes"/>
      <point x="359" y="630"/>
      <point x="375" y="645"/>
      <point x="403" y="645" type="curve" smooth="yes"/>
      <point x="443" y="645" type="line"/>
      <point x="453" y="680" type="line"/>
      <point x="145" y="680" type="line"/>
      <point x="135" y="645" type="line"/>
      <point x="195" y="645" type="line" smooth="yes"/>
      <point x="215" y="645"/>
      <point x="224" y="636"/>
      <point x="224" y="616" type="curve" smooth="yes"/>
      <point x="224" y="609"/>
      <point x="223" y="602"/>
      <point x="221" y="595" type="curve" smooth="yes"/>
      <point x="194" y="503"/>
      <point x="168" y="410"/>
      <point x="141" y="318" type="curve" smooth="yes"/>
      <point x="128" y="272"/>
      <point x="110" y="205"/>
      <point x="110" y="160" type="curve" smooth="yes"/>
      <point x="110" y="39"/>
      <point x="193" y="-12"/>
      <point x="297" y="-12" type="curve" smooth="yes"/>
      <point x="467" y="-12"/>
      <point x="545" y="118"/>
      <point x="585" y="257" type="curve" smooth="yes"/>
    </contour>
  </outline>
</glyph>
<glyph name="iacute" format="2">
  <advance width="339"/>
  <unicode hex="00ED"/>
  <outline>
    <contour>
      <point x="246" y="308" type="line" smooth="yes"/>
      <point x="256" y="335"/>
      <point x="261" y="360"/>
      <point x="261" y="380" type="curve" smooth="yes"/>
      <point x="261" y="426"/>
      <point x="234" y="458"/>
      <point x="179" y="458" type="curve" smooth="yes"/>
      <point x="104" y="458"/>
      <point x="51" y="383"/>
      <point x="25" y="300" type="curve"/>
      <point x="75" y="300" type="line"/>
      <point x="94" y="357"/>
      <point x="126" y="414"/>
      <point x="147" y="414" type="curve" smooth="yes"/>
      <point x="157" y="414"/>
      <point x="161" y="407"/>
      <point x="161" y="393" type="curve" smooth="yes"/>
      <point x="161" y="373"/>
      <point x="151" y="347"/>
      <point x="136" y="308" type="curve" smooth="yes"/>
      <point x="72" y="142" type="line" smooth="yes"/>
      <point x="62" y="115"/>
      <point x="57" y="90"/>
      <point x="57" y="70" type="curve" smooth="yes"/>
      <point x="57" y="24"/>
      <point x="84" y="-8"/>
      <point x="139" y="-8" type="curve" smooth="yes"/>
      <point x="214" y="-8"/>
      <point x="267" y="67"/>
      <point x="293" y="150" type="curve"/>
      <point x="243" y="150" type="line"/>
      <point x="224" y="93"/>
      <point x="192" y="36"/>
      <point x="171" y="36" type="curve" smooth="yes"/>
      <point x="161" y="36"/>
      <point x="157" y="43"/>
      <point x="157" y="57" type="curve" smooth="yes"/>
      <point x="157" y="77"/>
      <point x="167" y="103"/>
      <point x="182" y="142" type="curve" smooth="yes"/>
    </contour>
    <contour>
      <point x="263" y="693" type="line"/>
      <point x="239" y="651"/>
      <point x="192" y="590"/>
      <point x="161" y="560" type="curve"/>
      <point x="171" y="533" type="line"/>
      <point x="229" y="565"/>
      <point x="355" y="654"/>
      <point x="399" y="688" type="curve"/>
      <point x="392" y="707" type="line"/>
    </contour>
  </outline>
</glyph>
<glyph name="oslash" format="2">
  <advance width="504"/>
  <unicode hex="00F8"/>
  <outline>
    <component base="o" xScale="1.1" xOffset="-25"/>
    <contour>
      <point x="490" y="466" type="line"/>
      <point x="-63" y="0" type="line"/>
      <point x="-16" y="0" type="line"/>
      <point x="537" y="466" type="line"/>
    </contour>
  </outline>
</glyph>
<glyph name="yacute" format="2">
  <advance width="521"/>
  <unicode hex="00FD"/>
  <outline>
    <contour>
      <point x="365" y="693" type="line"/>
      <point x="341" y="651"/>
      <point x="294" y="590"/>
      <point x="263" y="560" type="curve"/>
      <point x="273" y="533" type="line"/>
      <point x="331" y="565"/>
      <point x="457" y="654"/>
      <point x="501" y="688" type="curve"/>
      <point x="494" y="707" type="line"/>
    </contour>
    <contour>
      <point x="286" y="60" type="curve"/>
      <point x="287" y="60" type="line"/>
      <point x="277" y="60" type="line"/>
      <point x="257" y="0" type="line" smooth="yes"/>
      <point x="227" y="-90"/>
      <point x="167" y="-198"/>
      <point x="121" y="-198" type="curve"/>
      <point x="119" y="-198"/>
      <point x="116" y="-193"/>
      <point x="116" y="-183" type="curve" smooth="yes"/>
      <point x="116" y="-174"/>
      <point x="118" y="-169"/>
      <point x="119" y="-163" type="curve" smooth="yes"/>
      <point x="121" y="-156"/>
      <point x="122" y="-148"/>
      <point x="122" y="-139" type="curve" smooth="yes"/>
      <point x="122" y="-105"/>
      <point x="94" y="-81"/>
      <point x="55" y="-81" type="curve" smooth="yes"/>
      <point x="18" y="-81"/>
      <point x="-10" y="-106"/>
      <point x="-10" y="-140" type="curve" smooth="yes"/>
      <point x="-10" y="-194"/>
      <point x="56" y="-225"/>
      <point x="116" y="-225" type="curve" smooth="yes"/>
      <point x="278" y="-225"/>
      <point x="372" y="22"/>
      <point x="433" y="209" type="curve" smooth="yes"/>
      <point x="511" y="450" type="line"/>
      <point x="401" y="450" type="line"/>
      <point x="322" y="208" type="line" smooth="yes"/>
      <point x="293" y="117"/>
      <point x="248" y="46"/>
      <point x="195" y="46" type="curve" smooth="yes"/>
      <point x="187" y="46"/>
      <point x="184" y="57"/>
      <point x="184" y="78" type="curve" smooth="yes"/>
      <point x="184" y="106"/>
      <point x="195" y="148"/>
      <point x="215" y="201" type="curve" smooth="yes"/>
      <point x="257" y="312" type="line" smooth="yes"/>
      <point x="267" y="339"/>
      <point x="273" y="364"/>
      <point x="273" y="384" type="curve" smooth="yes"/>
      <point x="273" y="430"/>
      <point x="245" y="462"/>
      <point x="190" y="462" type="curve" smooth="yes"/>
      <point x="115" y="462"/>
      <point x="63" y="393"/>
      <point x="38" y="311" type="curve"/>
      <point x="85" y="298" type="line"/>
      <point x="104" y="356"/>
      <point x="137" y="418"/>
      <point x="158" y="418" type="curve" smooth="yes"/>
      <point x="168" y="418"/>
      <point x="172" y="411"/>
      <point x="172" y="397" type="curve" smooth="yes"/>
      <point x="172" y="378"/>
      <point x="162" y="350"/>
      <point x="147" y="312" type="curve" smooth="yes"/>
      <point x="105" y="201" type="line" smooth="yes"/>
      <point x="92" y="165"/>
      <point x="85" y="133"/>
      <point x="85" y="107" type="curve" smooth="yes"/>
      <point x="85" y="47"/>
      <point x="118" y="8"/>
      <point x="173" y="8" type="curve" smooth="yes"/>
      <point x="205" y="8"/>
      <point x="250" y="21"/>
    </contour>
  </outline>
</glyph>
<glyph name="macronmod" format="2">
  <advance width="341"/>
  <unicode hex="02C9"/>
  <anchor x="260" y="494" name="_t.asciicircum_1"/>
  <outline>
    <contour>
      <point x="414" y="568" type="line"/>
      <point x="107" y="568" type="line"/>
      <point x="107" y="530" type="line"/>
      <point x="414" y="530" type="line"/>
    </contour>
  </outline>
</glyph>
<glyph name="quoteleft" format="2">
  <advance width="226"/>
  <unicode hex="2018"/>
  <outline>
    <contour>
      <point x="202" y="558" type="curve" smooth="yes"/>
      <point x="172" y="558"/>
      <point x="159" y="565"/>
      <point x="159" y="593" type="curve" smooth="yes"/>
      <point x="159" y="644"/>
      <point x="216" y="692"/>
      <point x="280" y="707" type="curve"/>
      <point x="274" y="732" type="line"/>
      <point x="200" y="718"/>
      <point x="119" y="666"/>
      <point x="119" y="550" type="curve" smooth="yes"/>
      <point x="119" y="474"/>
      <point x="151" y="437"/>
      <point x="203" y="437" type="curve" smooth="yes"/>
      <point x="239" y="437"/>
      <point x="263" y="467"/>
      <point x="263" y="497" type="curve" smooth="yes"/>
      <point x="263" y="528"/>
      <point x="239" y="558"/>
    </contour>
  </outline>
</glyph>
